<svg width="66" height="46" viewBox="0 0 66 46" fill="none" xmlns="http://www.w3.org/2000/svg">
<path d="M60.8056 0.6875H27.6025C26.2414 0.6875 24.9361 1.22818 23.9737 2.19059C23.0113 3.153 22.4706 4.45832 22.4706 5.81937V6.28688H8.12688C7.60526 6.28939 7.09459 6.43677 6.65184 6.71255C6.20908 6.98833 5.85164 7.38169 5.61938 7.84875L0.36 18.58C0.168419 18.9629 0.0666733 19.3844 0.0625 19.8125V36.4406C0.0625 37.0042 0.286383 37.5447 0.684898 37.9432C1.08341 38.3417 1.62391 38.5656 2.1875 38.5656H5.06688C5.39065 40.453 6.37122 42.1651 7.83527 43.3994C9.29933 44.6336 11.1526 45.3106 13.0675 45.3106C14.9824 45.3106 16.8357 44.6336 18.2997 43.3994C19.7638 42.1651 20.7443 40.453 21.0681 38.5656H43.3806C43.7044 40.453 44.685 42.1651 46.149 43.3994C47.6131 44.6336 49.4663 45.3106 51.3812 45.3106C53.2962 45.3106 55.1494 44.6336 56.6135 43.3994C58.0775 42.1651 59.0581 40.453 59.3819 38.5656H63.0687C63.8205 38.5658 64.5422 38.2708 65.0787 37.7443C65.6152 37.2177 65.9236 36.5016 65.9375 35.75V5.84063C65.9403 5.16491 65.8096 4.4953 65.553 3.87022C65.2963 3.24513 64.9188 2.67689 64.4419 2.1981C63.9651 1.7193 63.3984 1.33939 62.7744 1.08016C62.1504 0.820935 61.4813 0.687494 60.8056 0.6875ZM9.04062 10.5581H22.4706V17.5175H5.61938L9.04062 10.5581ZM13.0675 41.0625C12.2975 41.0646 11.5442 40.838 10.903 40.4116C10.2619 39.9851 9.76183 39.3778 9.46619 38.6668C9.17054 37.9558 9.09263 37.173 9.24234 36.4177C9.39205 35.6624 9.76264 34.9685 10.3071 34.424C10.8516 33.8795 11.5455 33.5089 12.3008 33.3592C13.0562 33.2095 13.8389 33.2874 14.55 33.5831C15.261 33.8787 15.8682 34.3788 16.2947 35.0199C16.7212 35.661 16.9477 36.4144 16.9456 37.1844C16.9428 38.2121 16.5333 39.1968 15.8067 39.9235C15.08 40.6502 14.0952 41.0597 13.0675 41.0625ZM13.0675 29.0456C11.4089 29.0492 9.79106 29.56 8.4312 30.5097C7.07135 31.4593 6.03455 32.8022 5.46 34.3581H4.3125V21.7675H22.4706V34.3156H20.675C20.097 32.7637 19.0587 31.4253 17.6991 30.4797C16.3396 29.5341 14.7236 29.0263 13.0675 29.0244V29.0456ZM51.3706 41.0625C50.6006 41.0646 49.8473 40.838 49.2062 40.4116C48.565 39.9851 48.065 39.3778 47.7693 38.6668C47.4737 37.9558 47.3958 37.173 47.5455 36.4177C47.6952 35.6624 48.0658 34.9685 48.6103 34.424C49.1547 33.8795 49.8486 33.5089 50.604 33.3592C51.3593 33.2095 52.1421 33.2874 52.8531 33.5831C53.5641 33.8787 54.1713 34.3788 54.5978 35.0199C55.0243 35.661 55.2508 36.4144 55.2487 37.1844C55.2459 38.2121 54.8365 39.1968 54.1098 39.9235C53.3831 40.6502 52.3983 41.0597 51.3706 41.0625ZM61.6875 34.3156H58.9781C58.4025 32.7604 57.3643 31.4187 56.0033 30.4712C54.6423 29.5237 53.0237 29.0157 51.3653 29.0157C49.7069 29.0157 48.0884 29.5237 46.7273 30.4712C45.3663 31.4187 44.3281 32.7604 43.7525 34.3156H26.7525V5.84063C26.7553 5.60759 26.8491 5.38488 27.0138 5.22009C27.1786 5.0553 27.4013 4.96151 27.6344 4.95875H60.8056C61.0387 4.96151 61.2614 5.0553 61.4262 5.22009C61.5909 5.38488 61.6847 5.60759 61.6875 5.84063V34.3156Z" fill="#591567"/>
</svg>
