<svg width="64" height="60" viewBox="0 0 64 60" fill="none" xmlns="http://www.w3.org/2000/svg">
<path d="M63.4176 42.3506C63.4176 36.6555 58.9651 32.203 53.2701 32.203C47.575 32.203 43.0189 36.7591 43.0189 42.3506C43.0189 45.6641 46.3324 51.4627 48.8176 55.3975H18.1677C16.7181 55.3975 15.2684 54.7762 14.233 53.7407C12.8868 52.3946 12.3691 50.5308 12.7833 48.5634C13.301 46.0783 15.6826 44.2144 18.4784 44.2144H28.7295C31.4217 44.2144 34.0104 43.179 35.9778 41.2116C38.7735 38.4158 39.7054 34.3775 38.3593 30.5463C37.0132 26.508 33.0785 23.7122 28.5224 23.7122H15.2684C17.7535 19.6739 21.1706 13.5646 21.1706 10.1476C21.1706 4.45251 16.7181 0 11.023 0C5.32794 0 0.771881 4.55606 0.771881 10.1476C0.771881 14.9107 7.70951 25.2654 9.05562 27.3363C9.15917 27.4399 9.26271 27.5434 9.36626 27.647L9.4698 27.7505C9.57335 27.8541 9.6769 27.8541 9.78045 27.9576L9.88399 28.0612C9.98754 28.1647 10.0911 28.1647 10.1946 28.1647H10.2982C10.5053 28.1647 10.6088 28.2683 10.8159 28.2683H28.4189C30.904 28.2683 33.0785 29.7179 33.8033 31.8924C34.5281 34.0669 34.0104 36.2414 32.4572 37.7946C31.4217 38.83 30.0756 39.4513 28.5224 39.4513H18.2713C13.1975 39.4513 8.95207 42.8683 8.02015 47.5279C7.29532 50.945 8.33079 54.4656 10.8159 56.8471C12.7833 58.8145 15.2684 59.85 18.0642 59.85H53.063C53.2701 59.85 53.3736 59.85 53.5807 59.7465H53.6843C53.7878 59.7465 53.8913 59.6429 53.9949 59.6429C54.0984 59.6429 54.0984 59.5394 54.202 59.5394C54.3055 59.4358 54.4091 59.4358 54.5126 59.3323L54.6162 59.2287C54.7197 59.1252 54.8233 59.0216 54.8233 58.9181C54.8233 58.9181 54.9268 58.9181 54.9268 58.8145C56.48 57.1578 63.4176 47.2173 63.4176 42.3506ZM11.023 4.6596C14.1294 4.6596 16.511 7.04118 16.511 10.1476C16.511 12.115 13.7152 17.3958 11.023 21.7448C8.22724 17.3958 5.43148 12.2185 5.43148 10.1476C5.43148 7.14472 7.9166 4.6596 11.023 4.6596ZM53.1665 36.8626C56.2729 36.8626 58.6545 39.2442 58.6545 42.3506C58.6545 44.318 55.8587 49.3918 53.063 53.5337C50.3708 49.3918 47.4715 44.318 47.4715 42.3506C47.575 39.3478 50.0601 36.8626 53.1665 36.8626Z" fill="#591567"/>
<path d="M13.301 10.044C13.301 9.42274 13.0939 8.80146 12.6797 8.38727C11.8514 7.5589 10.1946 7.5589 9.36625 8.38727C9.2627 8.49082 9.15915 8.59436 9.0556 8.69791C8.95206 8.80146 8.95206 9.00855 8.84851 9.1121C8.74496 9.21565 8.74496 9.42274 8.74496 9.52628C8.74496 9.62983 8.74496 9.83693 8.74496 9.94047C8.74496 10.044 8.74496 10.2511 8.74496 10.3547C8.74496 10.4582 8.84851 10.6653 8.84851 10.7688C8.84851 10.8724 8.95206 11.0795 9.0556 11.183C9.15915 11.2866 9.2627 11.3901 9.36625 11.4937C9.78043 11.9079 10.4017 12.2185 11.023 12.2185C11.6443 12.2185 12.2656 12.0114 12.6797 11.4937C12.9904 11.2866 13.301 10.6653 13.301 10.044Z" fill="#591567"/>
<path d="M54.8233 44.4215C55.2375 44.0073 55.5481 43.3861 55.5481 42.7648C55.5481 42.1435 55.341 41.5222 54.8233 41.108C54.7197 41.0045 54.6162 40.9009 54.5126 40.7974C54.4091 40.6939 54.202 40.6939 54.0984 40.5903C53.9949 40.5903 53.7878 40.4868 53.6843 40.4868C53.3736 40.4868 53.063 40.4868 52.7523 40.4868C52.6488 40.4868 52.4417 40.5903 52.3381 40.5903C52.2346 40.6939 52.0275 40.6939 51.924 40.7974C51.8204 40.9009 51.7169 41.0045 51.6133 41.108C51.1991 41.5222 50.8885 42.1435 50.8885 42.7648C50.8885 43.3861 51.0956 44.0073 51.6133 44.4215C51.7169 44.5251 51.8204 44.6286 51.924 44.7322C52.0275 44.8357 52.2346 44.8357 52.3381 44.9393C52.4417 44.9393 52.6488 45.0428 52.7523 45.0428C52.8559 45.0428 53.063 45.0428 53.1665 45.0428C53.7878 45.0428 54.4091 44.8357 54.8233 44.4215Z" fill="#591567"/>
</svg>
