<svg width="68" height="61" viewBox="0 0 68 61" fill="none" xmlns="http://www.w3.org/2000/svg">
<path d="M61.6719 15.3438C58.7187 12.1719 54.6719 9.98437 50.4063 9.21875C48 5.39062 44.5 2.54687 40.4531 1.125C38.5938 0.359375 36.4062 0.03125 34.1094 0.03125C23.7187 0.03125 15.2969 8.125 14.6406 18.2969C6.98438 19.2812 0.96875 25.7344 0.96875 33.7188C0.96875 39.2969 3.8125 44.3281 8.625 47.1719C8.95313 47.3906 9.39062 47.5 9.82812 47.5C10.7031 47.5 11.4687 47.0625 11.9062 46.2969C12.5625 45.0938 12.2344 43.5625 11.0312 42.9063C7.75 41.0469 5.78125 37.5469 5.78125 33.7188C5.78125 27.8125 10.4844 23.1094 16.3906 23.1094H16.9375C18.25 23.1094 19.4531 22.0156 19.4531 20.5937V19.5C19.4531 11.5156 26.0156 4.95313 34 4.95313C35.75 4.95313 37.2813 5.17188 38.7031 5.71875C42.0937 6.92188 44.9375 9.32812 46.6875 12.6094C47.125 13.375 47.7813 13.8125 48.5469 13.9219C52.1562 14.25 55.5469 16 58.0625 18.625C60.6875 21.4687 62.2188 25.1875 62.2188 29.0156C62.2188 34.375 59.4844 39.1875 55 42.0313C53.7969 42.7969 53.4688 44.2187 54.2344 45.4219C55 46.625 56.4219 46.9531 57.625 46.1875C63.6406 42.4688 67.1406 36.0156 67.1406 29.0156C67.1406 23.9844 65.1719 19.0625 61.6719 15.3438Z" fill="#591567"/>
<path d="M23.0625 38.9688C21.75 38.9688 20.5469 40.0625 20.5469 41.4844V57.5625C20.5469 58.875 21.6406 60.0781 23.0625 60.0781C24.4844 60.0781 25.5781 58.9844 25.5781 57.5625V41.4844C25.4687 40.0625 24.375 38.9688 23.0625 38.9688Z" fill="#591567"/>
<path d="M34 33.6094C32.6875 33.6094 31.4844 34.7031 31.4844 36.125V52.2031C31.4844 53.5156 32.5781 54.7187 34 54.7187C35.3125 54.7187 36.5156 53.625 36.5156 52.2031V36.125C36.5156 34.7031 35.3125 33.6094 34 33.6094Z" fill="#591567"/>
<path d="M44.9375 38.9688C43.625 38.9688 42.4219 40.0625 42.4219 41.4844V57.5625C42.4219 58.875 43.5156 60.0781 44.9375 60.0781C46.3594 60.0781 47.4531 58.9844 47.4531 57.5625V41.4844C47.4531 40.0625 46.3594 38.9688 44.9375 38.9688Z" fill="#591567"/>
</svg>
