<?xml version="1.0" standalone="no"?>
<!DOCTYPE svg PUBLIC "-//W3C//DTD SVG 20010904//EN"
 "http://www.w3.org/TR/2001/REC-SVG-20010904/DTD/svg10.dtd">
<svg version="1.0" xmlns="http://www.w3.org/2000/svg"
 width="475.000000pt" height="183.000000pt" viewBox="0 0 475.000000 183.000000"
 preserveAspectRatio="xMidYMid meet">

<g transform="translate(0.000000,183.000000) scale(0.100000,-0.100000)"
fill="#fff" stroke="none">
<path d="M60 1803 c1 -48 135 -262 234 -371 58 -65 66 -68 -148 74 -77 52
-142 91 -144 89 -18 -18 128 -191 236 -280 34 -27 59 -51 57 -53 -1 -2 -67 29
-145 68 -78 39 -145 69 -147 66 -18 -18 135 -155 261 -235 28 -17 46 -31 40
-31 -5 0 -69 18 -141 39 -73 21 -133 35 -133 30 0 -15 68 -63 157 -112 49 -26
77 -45 63 -42 -14 2 -45 9 -70 15 -25 5 -54 9 -65 9 -18 0 -18 -1 5 -21 27
-23 147 -81 225 -109 l50 -18 -110 0 c-99 -1 -107 -2 -88 -16 29 -20 179 -62
253 -71 78 -9 62 -18 -57 -34 -51 -7 -93 -16 -93 -20 0 -17 42 -23 185 -28
l150 -4 -100 -35 c-55 -19 -104 -39 -109 -44 -30 -28 273 10 321 41 17 11 17
11 -2 5 -11 -4 -36 -9 -55 -11 -31 -3 -32 -3 -10 6 l25 9 -25 -2 c-14 -1 -24
-8 -23 -15 2 -7 -8 -12 -25 -12 -15 0 -38 -3 -52 -5 l-25 -6 25 13 c82 39 107
48 139 48 20 0 52 4 70 10 44 12 55 4 13 -11 -17 -6 -33 -16 -35 -23 -3 -7
-48 -39 -101 -71 -99 -60 -118 -75 -93 -75 44 0 249 80 263 102 4 5 -8 3 -24
-6 -39 -20 -52 -21 -26 -1 10 8 14 15 8 15 -14 0 -40 -30 -28 -31 5 0 -9 -7
-30 -15 -51 -18 -56 -12 -11 14 19 12 35 25 35 30 0 6 21 15 47 21 58 15 105
39 98 51 -3 5 -1 11 5 15 5 3 15 15 21 26 10 19 9 20 -13 5 -13 -8 -41 -16
-63 -18 -22 -2 -43 -7 -46 -11 -4 -5 -17 -7 -29 -5 -21 3 -19 5 14 21 21 9 35
13 31 7 -13 -21 12 -9 36 17 21 23 22 25 4 19 -11 -4 -42 -10 -70 -12 -27 -2
-62 -7 -77 -10 -39 -8 -35 3 8 21 41 17 56 19 34 5 -13 -8 -13 -10 2 -10 9 0
29 10 43 23 l26 22 -78 -3 c-43 -2 -91 -2 -108 0 -29 4 -29 4 13 16 24 7 51
15 60 18 9 3 6 -2 -8 -10 -22 -14 -23 -15 -5 -16 11 0 33 8 48 19 l28 18 -63
7 c-124 13 -151 18 -137 27 8 5 28 9 44 9 68 1 64 32 -5 43 -19 3 -51 12 -70
20 l-35 15 63 1 c56 1 62 3 62 22 0 19 -4 21 -37 15 -21 -3 -71 -6 -111 -6
-40 0 -71 -4 -68 -8 3 -5 -18 -5 -46 -1 -29 5 -53 7 -55 5 -2 -1 24 -11 57
-21 71 -21 73 -30 5 -15 -43 10 -181 78 -173 85 2 2 35 -5 73 -16 51 -14 101
-19 190 -19 l120 0 -52 25 c-51 23 -71 41 -35 32 9 -3 38 -8 63 -12 41 -5 47
-3 52 14 6 22 -11 32 -42 24 -18 -5 -123 10 -175 24 -14 4 -18 1 -13 -11 5
-14 -1 -13 -45 4 -86 32 -67 13 33 -35 100 -47 105 -55 21 -30 -29 9 -84 40
-129 73 -114 85 -118 98 -18 51 47 -22 92 -38 99 -36 7 3 42 -1 77 -8 73 -15
88 -13 32 5 -76 25 -118 54 -215 148 -54 52 -96 97 -93 100 3 3 13 -2 22 -10
22 -19 180 -118 189 -118 4 0 1 7 -6 15 -20 24 -5 28 30 10 37 -19 53 -13 18
7 -13 7 -42 33 -65 58 -43 48 -153 207 -153 222 0 5 35 -24 78 -65 42 -41 105
-99 140 -128 106 -89 66 -69 -67 34 -53 41 -61 45 -44 21 55 -77 250 -231 278
-220 6 2 19 -2 30 -10 18 -14 18 -14 -1 -13 -10 0 -62 17 -114 39 -93 37 -116
42 -92 18 28 -28 7 -26 -58 7 -38 19 -70 33 -70 30 0 -11 113 -87 193 -129
103 -54 158 -64 85 -16 -71 47 -79 62 -21 41 86 -32 99 -33 97 -8 0 12 -19 41
-40 65 -22 23 -48 56 -58 72 -15 27 -11 25 57 -23 76 -54 96 -77 32 -37 -20
12 -38 20 -41 18 -8 -9 101 -83 149 -101 12 -5 8 6 -15 40 -18 25 -42 54 -53
64 -41 38 -198 159 -206 159 -14 0 15 -61 57 -121 21 -30 29 -46 17 -36 -12
10 -41 50 -65 88 -29 47 -99 126 -211 237 -92 92 -172 169 -177 170 -6 2 -10
-5 -10 -15z m355 -828 c80 -13 84 -19 10 -16 -30 1 -35 -1 -20 -8 35 -14 77
-22 71 -13 -3 5 11 4 30 -2 l35 -11 -44 -3 c-32 -2 -68 6 -124 28 -94 36 -124
54 -73 44 19 -4 71 -13 115 -19z m163 -2 c-10 -2 -26 -2 -35 0 -10 3 -2 5 17
5 19 0 27 -2 18 -5z m-43 -103 c4 -6 -6 -7 -25 -4 -20 4 -30 3 -30 -5 0 -8 16
-12 48 -10 26 2 70 1 97 0 l50 -3 -50 -9 c-55 -10 -163 2 -235 25 l-45 14 92
1 c51 1 95 -3 98 -9z m232 -76 c-1 -1 -30 -9 -65 -18 -65 -16 -233 -22 -246
-9 -12 12 110 28 216 28 53 0 96 -1 95 -1z m127 -40 c3 -8 2 -12 -4 -9 -6 3
-10 2 -10 -3 0 -5 -10 -12 -21 -15 -21 -6 -21 -5 2 19 27 28 25 28 33 8z"/>
<path d="M565 780 c-17 -7 -15 -9 13 -9 17 -1 32 4 32 9 0 12 -17 12 -45 0z"/>
<path d="M2710 1769 c-207 -191 -365 -367 -347 -386 3 -3 170 138 197 166 3 4
25 24 49 46 l44 40 -41 -65 c-61 -98 -143 -199 -182 -226 -40 -28 -37 -30 14
-9 37 16 46 10 24 -14 -23 -25 15 -6 104 51 45 30 90 58 98 63 27 16 -70 -88
-132 -143 -62 -55 -106 -81 -171 -102 -58 -18 -40 -20 37 -4 37 8 72 12 77 9
5 -4 48 12 95 35 48 22 88 39 90 37 2 -1 -29 -29 -69 -60 -79 -63 -153 -102
-207 -111 -33 -6 -33 -5 -10 6 108 49 170 81 166 85 -3 3 -29 -4 -60 -16 -47
-17 -54 -18 -49 -5 5 12 1 15 -13 11 -45 -14 -156 -29 -175 -24 -31 8 -48 -2
-42 -24 5 -17 11 -19 52 -14 25 4 54 9 64 12 26 7 20 -5 -11 -21 -19 -10 -40
-12 -69 -7 -28 6 -48 4 -64 -6 -22 -13 -19 -13 36 -9 40 4 53 3 40 -3 -13 -7
19 -10 100 -10 90 -1 138 4 190 18 38 11 71 18 73 16 2 -2 -25 -19 -60 -38
-61 -35 -153 -65 -164 -54 -3 3 9 8 27 12 18 4 46 14 63 21 l31 14 -40 -6
c-22 -3 -48 -8 -59 -11 -12 -3 -16 -1 -12 6 5 8 -19 12 -78 13 -47 1 -96 2
-108 2 -14 1 -24 -6 -26 -16 -3 -16 5 -18 60 -19 l63 -1 -35 -15 c-19 -8 -52
-18 -72 -20 -21 -3 -43 -11 -49 -19 -8 -10 -2 -14 28 -19 21 -4 47 -10 58 -14
21 -8 6 -12 -129 -27 l-59 -7 24 -18 c13 -10 33 -18 44 -18 18 0 17 1 -5 15
-14 8 -17 13 -8 10 9 -3 36 -11 60 -18 42 -12 42 -12 13 -16 -16 -2 -65 -2
-107 0 l-77 3 26 -22 c14 -13 33 -23 42 -23 14 0 14 2 1 10 -22 14 -7 12 34
-5 43 -18 47 -29 9 -21 -31 6 -128 18 -156 20 -20 0 -83 73 -73 83 3 4 17 -4
31 -17 14 -13 25 -20 25 -16 0 5 7 3 15 -4 8 -7 13 -16 10 -20 -5 -9 18 -20
42 -20 8 0 -10 22 -39 49 -53 49 -62 77 -14 46 14 -9 27 -16 30 -16 17 3 19 0
7 -8 -11 -7 -3 -12 28 -21 57 -15 62 -7 14 24 -67 44 -90 66 -71 66 9 0 20 -5
23 -11 4 -6 12 -8 19 -6 6 2 20 0 31 -5 18 -7 17 -8 -4 -4 -14 3 -20 1 -15 -4
13 -13 94 -24 94 -14 0 5 -19 17 -43 27 -44 18 -111 66 -72 51 11 -4 32 -7 47
-6 15 1 30 -4 34 -9 4 -8 -2 -9 -17 -4 -19 5 -21 4 -9 -4 18 -13 70 -14 88 -3
9 6 -1 13 -30 21 -24 7 -58 21 -77 31 l-35 17 60 0 c42 0 52 -2 34 -7 -21 -7
-19 -8 15 -8 22 0 49 3 60 8 22 9 30 6 -80 30 -54 12 -102 35 -55 27 14 -2 34
-8 45 -13 18 -7 18 -6 6 9 -12 15 -10 17 20 16 28 0 31 -2 14 -9 -15 -7 -16
-9 -4 -9 9 -1 34 7 55 16 l39 17 -95 7 c-52 4 -98 5 -102 2 -5 -2 -8 1 -8 7 0
8 14 11 39 8 23 -2 37 1 34 6 -4 5 1 6 11 3 20 -8 70 19 101 53 18 20 18 20
-35 4 -67 -20 -150 -33 -150 -24 0 10 50 31 60 25 10 -6 64 54 85 95 18 35 10
38 -25 9 -14 -11 -55 -40 -92 -64 -92 -60 -100 -75 -87 -150 19 -102 -17 -152
-163 -226 -32 -16 -58 -34 -58 -41 0 -6 -8 -17 -17 -24 -10 -7 -15 -16 -10
-20 4 -4 24 8 44 27 20 19 33 28 29 21 -4 -7 -9 -29 -11 -50 l-3 -37 15 38
c15 35 42 55 29 21 -4 -10 -2 -13 6 -8 7 5 9 2 5 -8 -3 -9 1 -24 9 -35 13 -16
14 -14 9 22 -4 22 -8 50 -11 63 -2 12 0 22 5 22 5 0 12 -14 16 -30 4 -17 11
-28 16 -24 5 3 9 -4 9 -16 0 -12 -4 -18 -10 -15 -15 9 -12 -8 6 -33 8 -12 12
-22 8 -22 -15 0 33 -43 68 -61 46 -24 45 -24 43 4 -2 12 -7 21 -13 20 -6 -2
-21 10 -35 26 -13 16 -32 31 -42 32 -10 2 -20 10 -23 18 -3 10 0 12 12 8 21
-8 20 -6 -8 53 -28 58 -16 78 15 25 24 -40 84 -80 72 -48 -5 15 -1 14 19 -4
25 -24 44 -31 33 -13 -4 6 10 2 31 -7 33 -16 35 -18 14 -21 -12 -2 -25 0 -29
5 -3 4 -22 9 -41 11 -19 2 -47 10 -62 17 -26 12 -27 12 -18 -5 6 -10 15 -22
20 -25 6 -4 8 -10 5 -15 -7 -12 40 -36 98 -51 26 -6 47 -15 47 -19 0 -5 16
-18 36 -30 44 -28 39 -34 -12 -16 -21 8 -35 15 -30 15 11 1 -14 31 -26 31 -5
0 -6 -4 -3 -10 8 -13 -1 -13 -26 0 -10 6 -19 8 -19 5 0 -10 116 -63 184 -84
124 -38 124 -28 1 48 -48 29 -96 62 -106 72 -11 11 -31 24 -46 30 -37 14 -23
21 18 9 18 -6 55 -10 81 -10 27 0 48 -4 48 -10 0 -5 -8 -10 -17 -11 -16 0 -15
-2 2 -10 16 -7 12 -8 -15 -5 -19 2 -44 7 -55 11 -19 6 -19 6 -2 -5 47 -30 327
-66 327 -42 0 4 -40 20 -88 36 -48 16 -94 32 -102 37 -9 5 34 9 102 9 114 0
218 14 218 29 0 4 -44 13 -98 20 -122 16 -141 26 -66 35 78 9 210 43 248 64
31 17 31 17 -79 22 l-110 5 45 13 c65 20 223 96 239 115 12 15 11 17 -5 17
-11 -1 -47 -7 -81 -14 -35 -7 -63 -12 -63 -10 0 2 35 21 78 43 76 40 152 95
152 111 0 4 -59 -10 -132 -31 -73 -21 -134 -36 -136 -35 -1 2 21 19 50 37 122
78 263 207 245 225 -2 3 -69 -27 -147 -66 -78 -39 -144 -70 -146 -68 -2 2 22
24 52 48 107 85 252 252 242 280 -1 5 -73 -37 -158 -95 -85 -58 -159 -105
-163 -105 -5 0 15 26 43 58 58 65 156 205 190 272 26 51 42 100 32 100 -4 0
-32 -23 -62 -51z m-620 -519 c-20 -29 -39 -43 -24 -18 5 8 2 9 -9 5 -27 -10
-20 -1 16 22 42 27 42 26 17 -9z m26 -75 c-10 -8 -24 -11 -30 -8 -6 4 0 10 14
14 36 10 37 10 16 -6z m410 -197 c-64 -33 -146 -58 -194 -58 -58 0 -50 9 15
15 27 2 61 9 74 14 23 9 23 10 -8 10 -17 1 -35 -3 -38 -9 -3 -5 -11 -10 -16
-10 -6 0 -8 4 -5 9 4 5 0 12 -6 14 -7 3 3 6 22 7 19 0 64 7 100 14 91 19 101
18 56 -6z m-238 -5 c-10 -2 -26 -2 -35 0 -10 3 -2 5 17 5 19 0 27 -2 18 -5z
m152 -109 c-76 -24 -166 -35 -227 -27 l-58 7 64 8 c35 4 69 12 75 18 5 5 50
10 101 9 l90 -1 -45 -14z m-123 -79 c35 -4 60 -11 57 -16 -9 -15 -179 -10
-246 7 -35 9 -64 17 -65 18 -5 5 203 -2 254 -9z m-322 -63 c-2 -2 -18 4 -36
12 -19 8 -28 15 -21 15 8 1 10 6 5 14 -4 6 7 1 24 -13 17 -14 29 -26 28 -28z
m-90 -8 c11 -18 13 -24 4 -19 -28 16 -39 28 -33 36 8 13 10 12 29 -17z m317
-7 c21 -7 41 -17 45 -22 5 -4 0 -5 -10 -2 -10 4 -33 7 -51 7 -22 0 -33 5 -33
15 0 18 2 18 49 2z"/>
<path d="M2305 860 c-3 -6 5 -10 19 -10 14 0 28 5 31 10 3 6 -5 10 -19 10 -14
0 -28 -4 -31 -10z"/>
<path d="M2220 780 c0 -5 15 -10 33 -9 27 0 29 2 12 9 -28 12 -45 12 -45 0z"/>
<path d="M2535 1499 c-10 -15 -154 -121 -169 -123 -7 -1 -27 -17 -45 -36 l-32
-35 35 51 c39 55 71 124 59 124 -9 0 -190 -139 -211 -161 -22 -23 -84 -111
-75 -107 4 3 26 13 48 23 22 10 59 33 83 52 51 41 57 28 7 -16 -20 -17 -31
-31 -26 -31 18 0 -9 -45 -37 -64 l-27 -17 40 6 c21 4 52 13 68 22 38 19 47 9
10 -11 -25 -14 -26 -15 -7 -16 28 0 131 50 215 106 96 63 106 83 21 40 -64
-32 -72 -34 -62 -16 6 12 10 23 8 25 -2 2 -46 -14 -98 -35 -100 -41 -133 -49
-112 -28 6 6 22 12 36 14 44 5 246 169 277 227 10 18 5 24 -6 6z m-241 -153
c-9 -15 -19 -24 -22 -22 -2 3 -25 -7 -51 -21 -25 -14 -41 -21 -36 -15 14 16
119 89 123 86 2 -1 -4 -14 -14 -28z m37 -120 c-12 -13 -32 -23 -44 -23 -12 1
-35 -2 -52 -7 -16 -4 -28 -5 -25 -2 5 4 120 50 139 55 3 0 -6 -10 -18 -23z"/>
<path d="M686 1310 c10 -18 26 -34 35 -35 25 -4 69 -36 63 -46 -3 -5 6 -14 20
-21 14 -6 26 -14 26 -18 0 -8 -99 6 -135 20 -65 25 -68 5 -4 -35 46 -30 64
-33 29 -5 l-25 19 25 -6 c14 -4 31 -13 38 -20 7 -7 27 -13 43 -13 16 0 29 -5
29 -11 0 -5 -3 -8 -7 -6 -5 3 -48 2 -98 -2 l-90 -6 32 -18 c35 -19 81 -25 53
-7 -12 7 -8 10 14 10 25 0 27 -2 15 -17 -12 -15 -12 -16 6 -8 11 4 34 10 50
12 l30 4 -32 -15 c-18 -8 -54 -18 -80 -22 -26 -3 -52 -9 -57 -12 -16 -9 19
-22 59 -21 34 1 36 2 15 9 -18 5 -8 7 33 7 65 -1 60 -7 -38 -43 l-60 -22 39
-7 c30 -6 49 -3 84 14 24 12 47 20 49 17 6 -6 -98 -66 -114 -66 -7 0 -13 -5
-13 -11 0 -18 92 0 116 22 11 10 26 19 33 19 21 0 -3 -24 -60 -61 -55 -35 -58
-45 -8 -30 19 5 27 10 19 10 -13 1 -13 2 0 11 21 14 33 12 24 -2 -4 -7 7 0 24
16 17 15 35 25 41 22 6 -4 -13 -28 -44 -56 -37 -33 -49 -50 -38 -50 22 0 45
14 43 26 -1 5 4 10 11 13 7 2 9 -1 4 -10 -4 -8 6 2 23 21 42 49 53 29 12 -23
-18 -23 -38 -48 -43 -55 -8 -10 -5 -10 14 -4 13 5 24 14 24 21 0 6 4 10 8 9 4
-2 17 12 28 29 32 51 42 28 13 -29 -28 -56 -25 -74 9 -39 12 13 16 21 10 17
-20 -11 -15 6 12 39 l25 30 -6 -40 c-3 -22 -7 -48 -9 -57 -2 -10 1 -18 6 -18
10 0 18 16 24 47 2 10 4 20 5 23 1 3 10 -13 21 -35 l19 -40 -5 47 -5 47 32
-29 c17 -16 34 -27 37 -24 3 3 -2 11 -11 18 -10 7 -15 15 -12 18 7 7 -36 37
-99 69 -68 34 -123 89 -129 129 -3 18 -1 53 4 79 5 30 5 55 -2 71 -6 14 -53
53 -107 90 -118 80 -121 81 -97 40z m100 -315 c-11 -8 -25 -15 -30 -15 -6 1 0
7 14 15 32 19 40 18 16 0z m29 -45 c-3 -5 -12 -10 -18 -10 -7 0 -6 4 3 10 19
12 23 12 15 0z"/>
<path d="M1397 1278 c-8 -18 -25 -61 -38 -96 -24 -61 -24 -62 -79 -78 -30 -8
-75 -27 -100 -42 -46 -26 -150 -119 -150 -133 0 -4 9 -11 20 -14 15 -5 26 0
41 18 30 39 114 97 169 118 28 10 50 16 50 13 0 -3 -30 -83 -67 -176 -53 -134
-69 -166 -76 -152 -5 11 -22 29 -38 42 l-29 24 0 -26 c0 -14 4 -26 8 -26 5 0
18 -19 31 -42 12 -24 16 -35 9 -24 -42 60 -44 61 -44 14 -1 -59 -30 -243 -43
-265 -8 -15 -14 -10 -36 40 -27 58 -27 58 -43 36 -14 -21 -13 -26 18 -86 l33
-64 -21 -54 c-18 -45 -19 -55 -7 -65 20 -16 29 -7 45 39 7 23 15 41 18 41 2 0
19 -13 38 -29 48 -43 111 -77 174 -95 l55 -16 35 -90 c19 -50 39 -89 45 -87 5
2 25 43 44 90 33 84 36 88 75 98 57 15 134 55 183 96 l42 34 16 -37 c8 -20 15
-40 15 -45 0 -14 16 -11 30 6 10 12 9 25 -8 68 -18 47 -18 55 -5 72 9 11 24
39 35 62 17 39 17 45 4 70 -13 26 -15 27 -22 8 -16 -47 -43 -105 -48 -105 -12
0 -33 69 -29 92 3 14 -3 62 -12 107 -9 44 -14 91 -10 104 6 21 6 21 -9 3 -9
-11 -16 -27 -16 -36 0 -9 -7 -17 -15 -17 -16 0 -13 7 21 54 13 17 24 42 24 54
0 22 0 22 -20 4 -12 -10 -18 -25 -16 -32 5 -12 -9 -26 -31 -29 -12 -2 -147
320 -141 337 6 18 144 -59 191 -106 29 -29 53 -45 62 -41 26 10 16 32 -33 78
-60 56 -121 92 -194 113 l-57 16 -36 95 c-21 51 -39 94 -41 94 -2 0 -10 -15
-17 -32z m37 -133 c5 -16 1 -20 -19 -20 -28 0 -29 3 -14 42 11 29 19 24 33
-22z m102 -255 c41 -102 77 -193 80 -202 5 -17 -9 -18 -200 -18 -113 0 -206 3
-206 7 0 8 138 360 152 386 7 14 19 17 55 15 l45 -3 74 -185z m-376 -161 c0
-6 -4 -7 -10 -4 -5 3 -10 11 -10 16 0 6 5 7 10 4 6 -3 10 -11 10 -16z m560
-111 c-1 -26 -3 -30 -10 -16 -6 9 -7 23 -4 32 9 25 14 19 14 -16z m-598 -20
c-10 -22 -11 -21 -11 12 -1 26 2 31 11 22 8 -8 8 -17 0 -34z m494 15 c-3 -10
-39 -101 -80 -203 l-74 -185 -48 0 -49 0 -77 195 c-43 107 -78 198 -78 203 0
4 93 7 206 7 191 0 205 -1 200 -17z m-371 -207 c37 -92 65 -169 63 -171 -14
-15 -202 98 -214 129 -3 7 12 55 32 107 38 100 44 112 49 107 2 -2 34 -79 70
-172z m455 69 c22 -54 40 -100 40 -102 0 -2 -16 -18 -36 -37 -56 -53 -184
-116 -184 -91 0 12 133 336 136 332 2 -2 22 -48 44 -102z m-260 -307 c-1 -7
-7 -24 -15 -38 l-13 -25 -11 28 c-16 41 -14 47 14 47 14 0 25 -6 25 -12z"/>
<path d="M720 1264 c0 -6 12 -21 27 -35 14 -13 23 -19 20 -12 -4 6 -2 14 3 16
6 3 5 4 -2 3 -7 -1 -20 7 -30 18 -10 12 -17 16 -18 10z"/>
<path d="M550 1204 c0 -9 60 -33 95 -39 35 -5 38 -5 20 7 -19 12 -115 39 -115
32z"/>
<path d="M595 1101 l-30 -7 40 -7 c62 -11 73 -9 51 8 -11 8 -22 14 -25 14 -3
-1 -19 -4 -36 -8z"/>
<path d="M2931 1074 l-51 -35 0 -149 0 -150 35 0 35 0 0 60 0 60 30 0 30 0 0
-60 0 -60 35 0 35 0 0 163 0 162 -49 21 -49 22 -51 -34z m53 -34 c24 -9 26
-14 26 -70 l0 -60 -30 0 -30 0 0 70 c0 39 2 70 4 70 3 0 16 -4 30 -10z"/>
<path d="M3280 1089 l-25 -20 23 -16 c21 -15 22 -21 22 -164 l0 -149 35 0 35
0 0 168 0 169 -27 14 c-16 7 -30 15 -33 16 -3 1 -16 -7 -30 -18z"/>
<path d="M3170 920 l0 -180 35 0 35 0 0 180 0 180 -35 0 -35 0 0 -180z"/>
<path d="M3505 1072 l-40 -28 -3 -152 -3 -152 36 0 35 0 0 60 0 60 30 0 30 0
0 -60 0 -60 35 0 35 0 0 160 0 160 -40 20 c-51 26 -67 25 -115 -8z m60 -34
c23 -10 25 -17 25 -70 0 -58 0 -58 -30 -58 l-30 0 0 70 c0 39 2 70 5 70 2 0
16 -5 30 -12z"/>
<path d="M3750 920 l0 -180 35 0 35 0 0 180 0 180 -35 0 -35 0 0 -180z"/>
<path d="M3852 1084 c-28 -19 -28 -27 1 -39 16 -7 23 -20 25 -47 3 -30 -1 -40
-22 -54 -32 -20 -32 -26 -3 -39 21 -9 22 -15 19 -87 l-4 -78 36 0 36 0 0 101
c0 92 -2 101 -20 106 -11 3 -20 9 -20 14 0 4 9 13 20 19 28 15 29 95 1 110
-27 14 -43 13 -69 -6z"/>
<path d="M4072 1061 l-32 -40 0 -126 0 -125 45 -22 c43 -21 45 -21 65 -3 27
24 25 30 -10 45 l-30 12 0 119 0 119 30 0 c19 0 33 7 40 19 17 34 11 41 -33
41 -39 0 -47 -4 -75 -39z"/>
<path d="M4291 1061 l-31 -39 0 -141 0 -141 35 0 35 0 0 110 c0 61 2 110 5
110 2 0 16 -5 30 -12 l25 -11 0 -144 c0 -78 3 -143 6 -143 3 0 19 9 35 21 l29
20 0 140 0 139 -35 17 c-34 16 -37 16 -65 -1 l-30 -17 0 35 0 36 50 0 c28 0
50 3 50 8 0 4 3 17 6 30 6 21 4 22 -54 22 -58 0 -61 -1 -91 -39z"/>
<path d="M4550 932 l0 -168 30 -18 c30 -17 32 -17 61 2 l30 19 -25 17 c-26 16
-26 16 -26 166 l0 150 -35 0 -35 0 0 -168z"/>
<path d="M4680 905 l0 -195 -40 0 c-34 0 -42 -4 -55 -30 l-16 -30 60 0 c55 0
61 2 90 35 l31 36 0 189 0 190 -35 0 -35 0 0 -195z"/>
<path d="M615 1020 c-24 -6 -18 -8 30 -8 42 0 54 2 40 8 -24 10 -30 10 -70 0z"/>
<path d="M2145 1020 c-14 -6 -3 -9 39 -9 33 -1 57 1 55 3 -11 9 -76 14 -94 6z"/>
<path d="M655 945 l-30 -14 26 -1 c15 0 42 7 60 15 l34 14 -30 0 c-16 0 -43
-7 -60 -14z"/>
<path d="M2125 945 c17 -8 41 -14 55 -14 23 0 22 1 -9 14 -18 8 -43 15 -55 14
-18 0 -16 -3 9 -14z"/>
<path d="M969 762 c-7 -10 -19 -18 -28 -16 -14 4 -81 -71 -81 -90 0 -9 70 29
100 55 23 19 22 19 -15 -2 l-39 -23 19 26 c11 14 23 24 26 22 9 -5 43 35 36
42 -3 3 -11 -3 -18 -14z"/>
<path d="M1056 720 c3 -30 7 -57 10 -61 2 -4 0 -10 -6 -14 -10 -6 -13 4 -11
40 0 12 -7 5 -18 -19 -11 -22 -17 -44 -15 -51 3 -6 -7 -22 -22 -35 l-27 -25
17 33 c16 32 16 32 -2 21 -16 -10 -72 -107 -72 -124 0 -16 54 34 91 85 25 35
51 60 62 60 19 0 37 37 36 73 0 21 -1 21 -10 2 -8 -17 -9 -16 -6 7 2 15 0 25
-5 22 -4 -3 -12 5 -18 18 -7 17 -8 9 -4 -32z"/>
<path d="M1024 745 c-3 -8 -3 -18 0 -23 3 -5 -1 -18 -9 -28 -14 -18 -14 -16
-9 14 9 46 -10 40 -26 -8 -7 -22 -15 -38 -18 -35 -3 3 -11 0 -19 -6 -10 -9
-13 -8 -13 1 0 7 -13 4 -35 -10 -19 -12 -38 -19 -43 -16 -5 3 -37 -24 -72 -59
-90 -91 -50 -84 96 17 43 29 77 46 87 43 20 -8 68 55 71 95 2 33 -1 38 -10 15z
m-133 -129 c-5 -6 -24 -20 -43 -30 l-33 -19 28 30 c25 27 69 45 48 19z"/>
<path d="M1766 744 c-3 -8 -10 -13 -15 -9 -16 9 -23 -34 -11 -70 7 -23 18 -35
29 -35 10 0 30 -17 44 -38 29 -41 107 -121 107 -109 0 19 -61 125 -75 130 -14
6 -14 3 1 -26 l16 -32 -21 21 c-12 11 -24 33 -27 49 -3 15 -12 40 -20 54 -8
14 -13 18 -10 9 7 -23 -3 -50 -15 -42 -5 3 -7 9 -4 14 7 11 16 100 11 100 -2
0 -7 -7 -10 -16z m-19 -46 c-3 -8 -6 -5 -6 6 -1 11 2 17 5 13 3 -3 4 -12 1
-19z"/>
<path d="M1796 729 c2 -24 39 -88 53 -90 3 0 15 -2 26 -3 11 -1 43 -18 70 -38
67 -47 115 -74 145 -83 20 -6 11 7 -39 58 -36 37 -68 64 -72 61 -5 -3 -23 3
-41 13 -18 9 -42 16 -54 14 -16 -1 -23 7 -33 36 -7 21 -23 43 -35 49 -20 9
-22 8 -20 -17z m34 -38 c0 -11 -4 -9 -14 4 -8 11 -12 24 -9 28 7 11 23 -12 23
-32z m157 -94 l28 -29 -38 22 c-42 25 -53 37 -32 37 8 0 27 -14 42 -30z"/>
<path d="M3033 623 c-29 -20 -29 -27 2 -41 l25 -12 0 -150 0 -150 35 0 35 0 0
165 0 165 -32 20 c-39 23 -37 23 -65 3z"/>
<path d="M3161 619 c-26 -21 -26 -21 7 -38 21 -11 22 -16 22 -161 l0 -150 35
0 35 0 0 168 0 168 -35 17 c-42 20 -35 21 -64 -4z"/>
<path d="M3398 604 l-48 -36 0 -132 0 -132 45 -22 c25 -12 50 -22 55 -22 6 0
33 15 60 32 l50 33 0 137 0 137 -46 21 c-26 11 -52 20 -58 20 -6 0 -32 -17
-58 -36z m67 -26 c25 -11 25 -12 25 -141 0 -119 -1 -129 -17 -122 -10 4 -26
10 -35 12 -16 5 -18 20 -18 134 0 75 4 129 10 129 5 0 21 -5 35 -12z"/>
<path d="M3948 607 l-48 -32 3 -138 2 -138 48 -21 47 -21 55 37 55 36 0 133 0
133 -45 22 c-25 12 -51 22 -58 22 -6 0 -33 -15 -59 -33z m62 -32 l30 -16 0
-124 c0 -73 -4 -125 -10 -125 -5 0 -21 5 -35 12 -25 11 -25 12 -25 140 0 70 2
128 5 128 4 0 19 -7 35 -15z"/>
<path d="M4304 617 l-26 -23 24 -16 c31 -20 31 -82 -1 -104 -27 -19 -26 -27 1
-39 20 -9 21 -16 19 -87 l-2 -78 35 0 36 0 0 100 c0 92 -2 100 -22 111 l-22
12 22 17 c16 13 22 29 22 59 0 35 -4 43 -29 56 -28 14 -32 14 -57 -8z"/>
<path d="M2920 450 l0 -180 35 0 35 0 0 180 0 180 -35 0 -35 0 0 -180z"/>
<path d="M3650 604 c-6 -14 -10 -27 -10 -30 0 -2 21 -4 47 -4 l46 0 -22 -24
c-20 -21 -21 -31 -19 -136 l3 -112 38 -16 c37 -14 40 -14 59 6 l21 21 -26 12
-27 12 0 119 0 118 33 0 c27 0 35 5 44 30 l11 30 -94 0 c-92 0 -95 -1 -104
-26z"/>
<path d="M4200 450 l0 -180 35 0 35 0 0 180 0 180 -35 0 -35 0 0 -180z"/>
<path d="M4523 590 c-29 -33 -33 -44 -33 -98 0 -56 2 -62 31 -83 l31 -22 22
28 c30 38 46 25 46 -36 l0 -49 -45 0 c-39 0 -46 -3 -60 -30 l-16 -30 61 0 c56
0 62 2 95 38 32 34 34 42 35 102 0 63 -1 66 -32 84 -30 18 -32 18 -44 1 -7
-10 -15 -23 -17 -28 -2 -6 -11 -8 -20 -4 -13 5 -17 19 -17 57 l0 50 45 0 c39
0 46 3 60 30 l16 30 -63 -1 c-60 -1 -65 -2 -95 -39z"/>
</g>
</svg>
